<svg width="53" height="54" viewBox="0 0 53 54" fill="none" xmlns="http://www.w3.org/2000/svg">
<path d="M36.6422 29.6558C36.1989 31.5583 35.2632 33.2675 33.9792 34.6369L44.3804 45.1975L48.1649 41.355L36.6422 29.6558Z" fill="#52FF00"/>
<path d="M32.9825 1.40645L27.8128 -7.30324e-07L23.4562 16.508L19.523 1.60447L14.3532 3.01092L18.6028 19.1131L8.01815 8.36638L4.23364 12.2089L15.8437 23.9968L1.38523 20.0633L4.96595e-07 25.3122L15.7977 29.61C15.6168 28.818 15.5211 27.9927 15.5211 27.1447C15.5211 21.1423 20.3135 16.2765 26.2253 16.2765C32.1371 16.2765 36.9296 21.1423 36.9296 27.1447C36.9296 27.9872 36.8351 28.8074 36.6564 29.5948L51.0136 33.5007L52.3987 28.2518L36.5383 23.9369L50.9977 20.0031L49.6124 14.7543L33.7526 19.0689L44.3372 8.32226L40.5527 4.47978L29.1037 16.1042L32.9825 1.40645Z" fill="#52FF00"/>
<path d="M33.8744 34.7476C32.575 36.0951 30.9328 37.1007 29.0913 37.6189L32.8761 51.9602L38.0458 50.5537L33.8744 34.7476Z" fill="#52FF00"/>
<path d="M28.8981 37.671C28.0437 37.894 27.1482 38.0125 26.2253 38.0125C25.2366 38.0125 24.2792 37.8764 23.3702 37.6216L19.582 51.9759L24.7517 53.3823L28.8981 37.671Z" fill="#52FF00"/>
<path d="M23.1875 37.569C21.3741 37.0251 19.7611 36.0067 18.4882 34.6553L8.06152 45.2417L11.846 49.0842L23.1875 37.569Z" fill="#52FF00"/>
<path d="M18.4013 34.5616C17.1502 33.2017 16.2389 31.5153 15.8052 29.6421L1.40112 33.5608L2.78634 38.8096L18.4013 34.5616Z" fill="#52FF00"/>
</svg>
